<svg width="61.682mm" height="81.837mm" version="1.1" viewBox="0 0 61.682 81.837" xmlns="http://www.w3.org/2000/svg">
 <defs>
  <clipPath id="clipPath50">
   <rect x="144.12" y="55.973" width="123.11" height="86.846" rx=".092118" fill="#23aeae" opacity=".99" stroke-width="0"/>
  </clipPath>
  <clipPath id="clipPath60">
   <rect x="156.93" y="41.74" width="133.84" height="101.31" rx=".092118" fill="#23aeae" opacity=".99" stroke-width="0"/>
  </clipPath>
 </defs>
 <g transform="translate(-64.719 -67.994)" stroke-width=".084667">
  <path transform="translate(-103.13 5.168)" d="m205 168.88 0.0235-1.1992 0.21167-0.0244c0.11642-0.0135 0.32996-0.0488 0.47455-0.0786 0.38071-0.0784 0.62612 0.252 0.62612 0.84304 0 0.62623-0.1559 0.81175-0.68214 0.81175h-0.41853v0.42333c0 0.32323-0.0306 0.42334-0.12933 0.42334-0.111 0-0.12599-0.16986-0.10583-1.1992zm0.95868 0.0601c0.12767-0.12768 0.20781-0.30514 0.20781-0.46016 0-0.61082-0.33036-0.90723-0.72381-0.64943-0.18214 0.11934-0.20752 0.19819-0.20752 0.64475 0 0.44849 0.0226 0.51785 0.1905 0.58534 0.27993 0.11253 0.30585 0.10667 0.53302-0.1205zm-36.353 0.27878c-0.39809-0.11173-0.52319-0.46209-0.52319-1.4652 0-0.66093 0.023-0.80705 0.127-0.80705 0.10465 0 0.127 0.15313 0.127 0.87016 0 1.0549 0.0911 1.2465 0.59266 1.2465 0.50235 0 0.59267-0.19104 0.59267-1.2536 0-0.66397 0.0257-0.86872 0.10583-0.84228 0.12335 0.0407 0.18705 0.93303 0.10592 1.4836-0.0935 0.63429-0.53437 0.93445-1.1279 0.76788zm7.1268 0.0317c-0.3289-0.0498-0.49568-0.33196-0.49568-0.8386 0-0.40353 0.031-0.49077 0.23756-0.66844 0.36506-0.31401 0.87743-0.22266 1.0654 0.18998 0.32639 0.71636-0.10683 1.4231-0.80732 1.3171zm0.57346-0.32739c0.0639-0.077 0.1162-0.30161 0.1162-0.49911 0-0.59764-0.4471-0.91183-0.81884-0.57542-0.17455 0.15797-0.21408 0.7763-0.0672 1.0508 0.1112 0.20778 0.60446 0.223 0.76982 0.0238zm2.1265 0.29049c-0.23702-0.11435-0.40033-0.62479-0.32625-1.0197 0.0764-0.40704 0.331-0.61245 0.75924-0.61245 0.34417 0 0.35122-6e-3 0.377-0.3175 0.0145-0.17463 0.0621-0.3175 0.10584-0.3175 0.0455 0 0.0796 0.46631 0.0796 1.0896v1.0896l-0.27517 0.0462c-0.15134 0.0254-0.33232 0.0659-0.40217 0.0901-0.0699 0.0241-0.21297 2e-3 -0.31805-0.0483zm0.72022-0.30221c0.15514-0.19735 0.13336-0.86284-0.0343-1.0481-0.17152-0.18952-0.35532-0.19654-0.60304-0.023-0.26064 0.18256-0.26959 0.88745-0.0145 1.1425 0.19182 0.19183 0.46876 0.16149 0.65183-0.0714zm1.4834 0.33818c-0.30003-0.0452-0.53085-0.41018-0.53085-0.83938 0-0.88659 1.0308-1.1972 1.2648-0.38113 0.0997 0.3476-0.0198 0.4414-0.56208 0.4414-0.41604 0-0.44873 0.0147-0.44873 0.2013 0 0.27946 0.2174 0.43179 0.60186 0.42171 0.1793-5e-3 0.30829 0.0201 0.28665 0.0551-0.0516 0.0836-0.374 0.13679-0.61166 0.10099zm0.5404-1.0786c0.061-0.15905-0.19743-0.46252-0.39392-0.46252s-0.45496 0.30347-0.39393 0.46252c0.0336 0.0875 0.16257 0.13015 0.39393 0.13015s0.36033-0.0426 0.39392-0.13015zm4.6243 1.0786c-0.62259-0.0938-0.72843-1.3468-0.13654-1.6164 0.29101-0.1326 0.39808-0.11873 0.65723 0.0851 0.1759 0.13837 0.22185 0.23951 0.20192 0.4445-0.0253 0.26021-0.0353 0.26587-0.51263 0.29077-0.44596 0.0233-0.48684 0.0419-0.48684 0.22247 0 0.27544 0.21925 0.42751 0.60187 0.41748 0.17929-5e-3 0.30828 0.0201 0.28664 0.0551-0.0516 0.0836-0.37399 0.13679-0.61165 0.10099zm0.5419-1.0825c0.0813-0.21172-0.25231-0.49164-0.50908-0.42719-0.21606 0.0542-0.36492 0.3187-0.26781 0.47583 0.0885 0.14328 0.71837 0.10386 0.77689-0.0486zm6.4854 1.0825c-0.30003-0.0452-0.53085-0.41018-0.53085-0.83938 0-0.30279 0.0482-0.42432 0.24748-0.62357 0.40121-0.40121 0.86435-0.29586 1.0145 0.23077 0.10274 0.36047-0.0115 0.45307-0.55921 0.45307-0.41604 0-0.44873 0.0147-0.44873 0.2013 0 0.27946 0.2174 0.43179 0.60186 0.42171 0.1793-5e-3 0.30829 0.0201 0.28665 0.0551-0.0517 0.0836-0.374 0.13679-0.61166 0.10099zm0.54041-1.0786c0.061-0.15905-0.19744-0.46252-0.39393-0.46252s-0.45496 0.30347-0.39393 0.46252c0.0336 0.0875 0.16257 0.13015 0.39393 0.13015s0.36033-0.0426 0.39393-0.13015zm1.0666 1.0854c-0.31453-0.0589-0.21526-0.18167 0.16933-0.2095 0.31765-0.023 0.35984-0.0502 0.35984-0.23212 0-0.15487-0.0947-0.26135-0.381-0.42844-0.44328-0.25869-0.52805-0.5102-0.23998-0.71197 0.2171-0.15207 0.54188-0.17848 0.62098-0.0505 0.0288 0.0466-0.023 0.0847-0.11508 0.0847-0.56182 0-0.59648 0.36024-0.0569 0.59153 0.27238 0.11676 0.39405 0.22477 0.43444 0.38569 0.0908 0.36166-0.32126 0.65867-0.79162 0.57065zm2.9638-0.0319c-0.68254-0.20184-0.90401-1.443-0.3651-2.0462 0.17978-0.20121 0.31501-0.26205 0.65502-0.29472 0.26644-0.0256 0.45053-6e-3 0.4868 0.0532 0.0393 0.0636-0.0557 0.0944-0.2909 0.0944-0.44305 0-0.63998 0.1066-0.81222 0.43969-0.19704 0.38102-0.12598 1.1024 0.13607 1.3813 0.15818 0.16837 0.28081 0.21102 0.60681 0.21102 0.22472 0 0.40858 0.0381 0.40858 0.0847s-0.0476 0.0852-0.10584 0.0858c-0.0582 8.5e-4 -0.18203 0.0171-0.27516 0.0366-0.0931 0.0195-0.29296-1e-3 -0.44406-0.0458zm1.8675-0.0313c-0.51719-0.22493-0.57474-1.1513-0.0938-1.5103 0.28925-0.21595 0.77275-0.13946 0.96407 0.15253 0.16207 0.24735 0.17467 0.88745 0.0223 1.1315-0.0821 0.1315-0.52485 0.38168-0.6141 0.34702-5e-3 -2e-3 -0.12998-0.0561-0.27841-0.1207zm0.68841-0.31817c0.18366-0.26221 0.16437-0.67892-0.0437-0.9434-0.20944-0.26627-0.44019-0.28475-0.67118-0.0538-0.21195 0.21195-0.23411 0.85448-0.0363 1.0523 0.19748 0.19748 0.59463 0.16834 0.75115-0.0551zm6.4271 0.3746c-0.27694-0.0405-0.46951-0.3098-0.50919-0.71215-0.0418-0.42375 0.0947-0.73064 0.40161-0.9029 0.32995-0.1852 0.65594-0.0656 0.80705 0.29604 0.17447 0.41756 0.0548 0.53992-0.52818 0.53992-0.37767 0-0.45508 0.0253-0.454 0.14817 3e-3 0.31629 0.37499 0.56544 0.71663 0.4797 0.12099-0.0304 0.21341-0.0171 0.21341 0.0307 0 0.0935-0.36599 0.16164-0.64733 0.12054zm0.52079-1.0338c0.0971-0.15713-0.0517-0.4216-0.26781-0.47583-0.25677-0.0644-0.59032 0.21547-0.50907 0.42719 0.0585 0.1525 0.68833 0.19192 0.77688 0.0486zm7.3232 1.0261c-0.12282-0.0328-0.27572-0.17994-0.36426-0.35048-0.39445-0.75967 0.21938-1.6157 0.899-1.2537 0.29684 0.15811 0.39103 0.34094 0.3939 0.76461 4e-3 0.61056-0.40426 0.97979-0.92864 0.8396zm0.6302-0.36688c0.18366-0.26221 0.16437-0.67892-0.0437-0.9434-0.20039-0.25476-0.38258-0.28025-0.65235-0.0913-0.14715 0.10306-0.18818 0.21504-0.18818 0.51356 0 0.53676 0.11284 0.70931 0.46385 0.70931 0.2022 0 0.32799-0.0563 0.42035-0.18818zm1.1266 0.38168c-0.2548-0.0629-0.1618-0.1935 0.1378-0.1935 0.51949 0 0.62785-0.41065 0.16091-0.60977-0.71875-0.30651-0.71328-0.91423 8e-3 -0.91423 0.11673 0 0.23578 0.0381 0.26456 0.0847 0.0303 0.0491-0.0521 0.0847-0.1963 0.0847-0.13675 0-0.29969 0.0615-0.36209 0.1367-0.1257 0.15147-0.0174 0.27072 0.50678 0.55786 0.20168 0.11048 0.26328 0.20215 0.26328 0.3918 0 0.13617-0.0476 0.28509-0.10584 0.33093-0.13845 0.10905-0.49036 0.17705-0.67733 0.13088zm2.5236-0.1387c-0.17905-0.17904-0.21645-0.29594-0.21645-0.67658 0-0.62475 0.18902-0.85989 0.6912-0.85989 0.36313 0 0.36742-3e-3 0.39342-0.3175 0.0172-0.2077 0.0684-0.3175 0.14816-0.3175 0.0998 0 0.12189 0.19781 0.12189 1.0896v1.0896l-0.27517 0.0501c-0.15134 0.0276-0.35874 0.0745-0.46089 0.10438-0.13373 0.0391-0.24631-6e-3 -0.40216-0.1622zm0.77839-0.16298c0.0632-0.0489 0.10583-0.28094 0.10583-0.57655 0-0.40239-0.0305-0.511-0.16377-0.58229-0.40898-0.21888-0.76756 0.0584-0.76756 0.59353 0 0.58377 0.42526 0.875 0.8255 0.56531zm1.4905 0.29555c-0.3289-0.0498-0.49568-0.33196-0.49568-0.8386 0-0.40353 0.031-0.49077 0.23755-0.66844 0.36507-0.31401 0.87744-0.22266 1.0654 0.18998 0.32639 0.71636-0.10684 1.4231-0.80732 1.3171zm0.60019-0.37555c0.18366-0.26221 0.16436-0.67892-0.0437-0.9434-0.35035-0.44541-0.84052-0.19429-0.84052 0.4306 0 0.52842 0.11418 0.70098 0.46384 0.70098 0.20221 0 0.328-0.0563 0.42036-0.18818zm-50.778 0.26536c-0.0367-0.074-0.0554-0.43566-0.0417-0.80376l0.025-0.66927 0.41033-0.0747c0.36364-0.0662 0.43108-0.054 0.59267 0.10747 0.15303 0.15291 0.18233 0.28051 0.18233 0.79382 0 0.84153-0.15824 0.86907-0.21166 0.0368-0.0429-0.6677-0.12181-0.81794-0.43138-0.82092-0.27582-3e-3 -0.40624 0.27812-0.43301 0.93218-0.0156 0.38163-0.0524 0.57947-0.0926 0.49838zm1.9262-0.0158c-0.0895-0.23334 6.2e-4 -1.4435 0.11024-1.4798 0.0794-0.0263 0.10583 0.15556 0.10583 0.72904 0 0.69712-0.10142 1.0495-0.21607 0.75077zm0.89959-0.0498c-0.207-0.38678 0.0287-0.77354 0.4714-0.77354 0.29589 0 0.45375-0.0905 0.45375-0.26008 0-0.19789-0.24469-0.33221-0.60827-0.33389-0.2124-9.8e-4 -0.24982-0.0213-0.15373-0.0834 0.19638-0.1269 0.65045-0.0995 0.79816 0.0483 0.18323 0.18323 0.23172 0.42532 0.20143 1.0055l-0.0259 0.49635-0.52299 0.0353c-0.45716 0.0308-0.53442 0.0139-0.61383-0.13449zm0.81932-0.11972c0.0582-0.045 0.10583-0.17248 0.10583-0.28319 0-0.16597-0.0434-0.2013-0.24707-0.2013-0.37407 0-0.51493 0.0824-0.51493 0.30118 0 0.33053 0.34231 0.42616 0.65617 0.18331zm8.8453-0.88666 0.0236-1.1642 0.381-0.0231c0.79262-0.0481 1.3205 0.49303 1.2371 1.2682-0.0792 0.73553-0.47571 1.0833-1.2353 1.0833h-0.42993zm0.97886 0.8627c0.4891-0.34258 0.59247-1.1358 0.20461-1.5699-0.1843-0.20626-0.31155-0.26783-0.5715-0.2765l-0.33442-0.0112-0.0239 0.99483-0.0239 0.99484h0.28018c0.1541 0 0.36508-0.0595 0.46884-0.13214zm3.3839 0.24082-0.23283-0.0353v-1.1021c0-0.84377 0.0248-1.0939 0.10583-1.0673 0.0582 0.0191 0.11777 0.17666 0.13237 0.3501l0.0265 0.31534 0.36337-0.0545c0.32673-0.049 0.38167-0.0312 0.54496 0.17637 0.28634 0.36403 0.22404 1.1927-0.10625 1.4132-0.0961 0.0642-0.42696 0.0658-0.83399 4e-3zm0.74468-0.23183c0.22811-0.22811 0.26981-0.5795 0.1103-0.92957-0.12236-0.26857-0.37077-0.35182-0.63224-0.21188-0.17948 0.096-0.20157 0.16617-0.20157 0.6397 0 0.41717 0.0319 0.55041 0.14816 0.61811 0.22904 0.1334 0.35006 0.10893 0.57535-0.11636zm0.95441 0.0808c-0.15183-0.33325 0.0189-0.61365 0.41368-0.67936 0.48306-0.0804 0.53306-0.10617 0.53306-0.27471 0-0.2434-0.17428-0.35815-0.5461-0.35956-0.25258-9.3e-4 -0.30945-0.0229-0.2159-0.0834 0.21804-0.1409 0.66588-0.0961 0.84667 0.0847 0.13869 0.13869 0.16933 0.28222 0.16933 0.79326v0.62392l-0.3175 0.0525c-0.60504 0.1-0.78021 0.0688-0.88324-0.15733zm0.84091-0.0658c0.0582-0.045 0.10583-0.17248 0.10583-0.28319 0-0.17129-0.0417-0.2013-0.2794-0.2013-0.30948 0-0.4826 0.12605-0.4826 0.35139 0 0.28472 0.36463 0.35868 0.65617 0.1331zm1.2579 0.14358c-0.0283-0.0737-0.0514-0.37084-0.0514-0.6604 0-0.30254-0.0441-0.57058-0.10371-0.63019-0.0818-0.0818-0.0818-0.13873 0-0.26978 0.057-0.0913 0.10371-0.22374 0.10371-0.29422 0-0.0705 0.0381-0.12815 0.0847-0.12815s0.0847 0.0749 0.0847 0.16636c0 0.0915 0.0799 0.20912 0.1776 0.2614l0.1776 0.095-0.1776 0.1244c-0.26289 0.18413-0.25775 1.0495 8e-3 1.2968l0.1853 0.17264h-0.21857c-0.12121 0-0.24147-0.0597-0.26997-0.13393zm9.7488 0.085c-0.0349-0.0352-0.0635-0.39565-0.0635-0.80099v-0.73698l0.42343-0.0562c0.26232-0.0348 0.49189-0.0195 0.60337 0.0402 0.13213 0.0707 0.23441 0.0715 0.38489 3e-3 0.30304-0.13808 0.51468-0.11434 0.70848 0.0794 0.1493 0.1493 0.16947 0.26169 0.14816 0.8255-0.0322 0.85126-0.18672 0.84634-0.21879-7e-3 -0.023-0.61279-0.04-0.66658-0.2394-0.75742-0.37307-0.16999-0.49196-0.01-0.54014 0.72836-0.0233 0.35666-0.0804 0.65751-0.127 0.66858-0.0483 0.0115-0.10286-0.2633-0.127-0.63934-0.0429-0.66771-0.12181-0.81795-0.43138-0.82092-0.27396-3e-3 -0.40625 0.27841-0.43236 0.91858-0.0139 0.3406-0.0538 0.59045-0.0888 0.55524zm6.9356-8e-3c-0.031-0.0311-0.0564-0.32826-0.0564-0.66044 0-0.36368-0.0413-0.64521-0.10371-0.70767-0.0818-0.0818-0.0818-0.13873 0-0.26978 0.057-0.0913 0.10371-0.22374 0.10371-0.29422 0-0.0705 0.0381-0.12815 0.0847-0.12815s0.0847 0.0749 0.0847 0.16636c0 0.0915 0.0799 0.20912 0.1776 0.2614l0.1776 0.095-0.1776 0.1244c-0.26289 0.18413-0.25776 1.0495 8e-3 1.2968l0.1853 0.17264h-0.21352c-0.11743 0-0.23892-0.0254-0.26996-0.0565zm1.183-2e-3c-0.0298-0.0298-0.0541-0.39074-0.0541-0.80208 0-0.60835 0.0237-0.74789 0.127-0.74789 0.10342 0 0.127 0.14056 0.127 0.75701 0 0.69526-0.0599 0.93288-0.19986 0.79291zm1.0635-0.0429c-0.0577-0.0577-0.1016-0.33426-0.1016-0.64056 0-0.29644-0.0416-0.61676-0.0925-0.71183-0.0669-0.12501-0.0669-0.19847 0-0.26537 0.0509-0.0509 0.0925-0.16426 0.0925-0.25196 0-0.21511 0.20459-0.13771 0.23819 0.0901 0.0146 0.0989 0.10454 0.20463 0.19988 0.23489 0.16841 0.0534 0.16765 0.0579-0.0265 0.1543-0.17264 0.0857-0.20329 0.17016-0.2249 0.61942-0.0215 0.44777 1e-3 0.54466 0.16413 0.69637 0.18131 0.16892 0.18217 0.17623 0.0208 0.17623-0.0926 0-0.21408-0.0457-0.26996-0.1016zm1.1217-6e-3c-0.0895-0.23334 5.9e-4 -1.4435 0.11024-1.4798 0.0794-0.0263 0.10583 0.15556 0.10583 0.72904 0 0.69712-0.10142 1.0495-0.21607 0.75077zm0.98808-0.66465c-0.14416-0.42984-0.24602-0.79761-0.22636-0.81727 0.0939-0.0939 0.22191 0.11691 0.35155 0.57893 0.21372 0.76171 0.31392 0.74231 0.57255-0.11089 0.0812-0.26776 0.18372-0.48684 0.22791-0.48684 0.12842 0 0.0858 0.25166-0.1578 0.93057-0.32167 0.89666-0.44033 0.88205-0.76785-0.0945zm11.036 0.66743c-0.0245-0.0637-0.0337-0.59003-0.0206-1.1695l0.0239-1.0536h0.51652c0.31226 0 0.57175 0.0461 0.65617 0.1162 0.17659 0.14656 0.18033 0.59206 7e-3 0.83947-0.12302 0.17563-0.1169 0.22252 0.0847 0.64859 0.22026 0.46559 0.28245 0.77404 0.13807 0.68481-0.0436-0.0269-0.17415-0.25635-0.2902-0.50985-0.15467-0.33783-0.26911-0.47548-0.42861-0.51551-0.38349-0.0963-0.47198-1e-3 -0.47198 0.50633 0 0.44291-0.12101 0.69777-0.21501 0.45282zm0.8735-1.2966c0.41937-0.29374 0.14663-0.84523-0.38751-0.78359-0.19868 0.0229-0.23216 0.0692-0.25546 0.3528-0.0147 0.17951-6e-3 0.37954 0.0185 0.4445 0.0604 0.15727 0.3907 0.15003 0.62446-0.0137zm1.3453 1.3454c-0.031-0.031-0.0564-0.52167-0.0564-1.0903 0-0.77111 0.0294-1.0583 0.11577-1.1299 0.14158-0.1175 0.1349-0.12569 0.73457 0.90157 0.25168 0.43115 0.49669 0.77096 0.54447 0.75515 0.0491-0.0163 0.0974-0.3849 0.11109-0.84741 0.0372-1.2567 0.18743-0.9967 0.18743 0.32437 0 0.9435-0.0215 1.143-0.12311 1.143-0.0677 0-0.3391-0.36195-0.60309-0.80433-0.264-0.44239-0.53245-0.80434-0.59656-0.80434-0.0908 0-0.11657 0.17781-0.11657 0.80434 0 0.73725-0.0435 0.90193-0.19755 0.74788zm-51.724-2.0362c-0.12805-0.0194-0.23283-0.0668-0.23283-0.10525 0-0.11263 0.21667-0.16366 0.34635-0.0816 0.0656 0.0415 0.20504 0.0761 0.30982 0.0768 0.10477 8.5e-4 0.1905 0.0394 0.1905 0.086 0 0.0844-0.17137 0.091-0.61384 0.024zm-1.2488-0.10868c0-0.0466 0.0404-0.0847 0.0897-0.0847s0.0661 0.0381 0.0373 0.0847-0.0691 0.0847-0.0897 0.0847c-0.0205 0-0.0373-0.0381-0.0373-0.0847zm36.534 0c-0.0288-0.0466 9e-3 -0.0847 0.0847-0.0847 0.0753 0 0.11344 0.0381 0.0847 0.0847-0.0288 0.0466-0.0669 0.0847-0.0847 0.0847s-0.0559-0.0381-0.0847-0.0847zm2.2437 0c0-0.0466 0.0404-0.0847 0.0897-0.0847s0.0661 0.0381 0.0373 0.0847-0.0691 0.0847-0.0897 0.0847c-0.0205 0-0.0373-0.0381-0.0373-0.0847zm-38.897-4.1526c-1.9913-0.31164-3.4612-1.1558-4.1003-2.355-0.56359-1.0574-0.55092-0.90074-0.58536-7.2359-0.0236-4.3421-7e-3 -5.7717 0.0692-5.8632 0.081-0.0976 0.42976-0.1207 1.8045-0.11965 0.93727 6.8e-4 1.7507 0.0309 1.8077 0.0671 0.0796 0.0505 0.10897 1.3982 0.127 5.8195 0.0233 5.7063 0.025 5.7566 0.20573 6.0924 0.23878 0.44367 0.4891 0.66907 1.0041 0.9041 0.36449 0.16634 0.56132 0.19271 1.4383 0.19271 0.87752 0 1.0737-0.0263 1.4393-0.19311 0.51043-0.23285 0.84242-0.53464 1.0872-0.98837 0.18134-0.33606 0.18293-0.38258 0.20678-6.0504 0.0184-4.3706 0.0482-5.7271 0.127-5.7772 0.12099-0.0769 3.2863-0.092 3.4827-0.0166 0.12029 0.0462 0.13393 0.63135 0.13393 5.7458 0 3.4308-0.0336 5.8757-0.0846 6.1504-0.12669 0.68323-0.60847 1.5906-1.1118 2.0939-0.69389 0.69388-1.5348 1.1101-2.8676 1.4194-0.66137 0.15347-3.4468 0.22939-4.1838 0.11405zm36.661-5e-3c-2.0421-0.29784-3.4122-1.157-4.0769-2.5567-0.48724-1.026-0.53874-1.5294-0.53874-5.266 0-3.777 0.0514-4.2674 0.55467-5.2886 0.82442-1.673 2.4617-2.4926 5.1968-2.6012 2.5832-0.1026 4.3389 0.39336 5.4744 1.5464 0.31977 0.32471 0.62018 0.73689 0.7768 1.0658 0.28079 0.58971 0.54949 1.7559 0.50694 2.2002l-0.0272 0.28348-3.6584 0.0456-0.0557-0.5996c-0.0612-0.65874-0.22259-1.1226-0.48926-1.4065-0.45342-0.48265-1.7787-0.73963-2.7978-0.54251-0.67743 0.13103-1.1844 0.4239-1.437 0.8301l-0.19787 0.31825v8.2973l0.19787 0.31824c0.25254 0.4062 0.75954 0.69908 1.437 0.83011 1.0191 0.19711 2.3444-0.0599 2.7978-0.54252 0.31188-0.33198 0.45403-0.82325 0.50038-1.7293l0.0445-0.86945 3.6585 0.0456 0.0254 0.58835c0.014 0.3236-0.0365 0.8951-0.1122 1.27-0.52458 2.5983-2.581 3.8798-6.1723 3.8463-0.6088-6e-3 -1.3323-0.0432-1.6077-0.0834zm-21.703-0.13171c-0.0836-0.0337-0.10584-1.6512-0.10584-7.6889 0-6.8943 0.0132-7.6513 0.13393-7.6976 0.2249-0.0863 5.4352-0.057 6.4277 0.0362 3.1778 0.29823 4.826 1.4676 5.4377 3.858 0.12981 0.50722 0.14955 1.0024 0.14988 3.7592 3.4e-4 2.7671-0.0193 3.2588-0.15277 3.8276-0.22262 0.94865-0.5919 1.6277-1.238 2.2766-0.92991 0.93384-2.1752 1.4079-4.1968 1.5976-0.92659 0.087-6.254 0.11293-6.4558 0.0315zm6.6742-2.8089c0.63768-0.24892 1.112-0.67413 1.3571-1.2165 0.1997-0.44197 0.20286-0.49025 0.22769-3.4819 0.0215-2.596 5e-3 -3.1029-0.11208-3.5137-0.38756-1.3552-1.3427-1.8387-3.5114-1.7775l-0.97367 0.0275-0.022 4.9953c-0.0121 2.7474-2e-3 5.0471 0.022 5.1104 0.0352 0.0921 0.29257 0.10764 1.292 0.0779 1.0204-0.0304 1.3341-0.0708 1.7203-0.22155zm25.817-5.0937c0-6.2729 0.0217-7.8809 0.10583-7.8528 0.0837 0.0279 0.10584 1.674 0.10584 7.8528 0 6.1788-0.0222 7.825-0.10584 7.8528-0.0842 0.0281-0.10583-1.58-0.10583-7.8528zm2.54 7.4005c0-0.0276 0.0762-0.14701 0.16933-0.26541 0.15881-0.20189 0.16934-0.34347 0.16934-2.2782 0-1.95-9e-3 -2.0722-0.16934-2.2322-0.28305-0.28305-0.20963-0.34866 0.35984-0.32154l0.52916 0.0252 1.1007 1.8397c0.60537 1.0119 1.1292 1.8405 1.1642 1.8415 0.0349 1e-3 0.0635-0.717 0.0635-1.5955 0-1.469-0.0136-1.6145-0.16934-1.8125-0.0931-0.1184-0.16933-0.23784-0.16933-0.26542 0-0.0717 1.0603-0.0623 1.1327 0.0101 0.0332 0.0331-0.0272 0.12617-0.13405 0.20673-0.19345 0.14583-0.19443 0.15704-0.21928 2.5273l-0.025 2.3809-0.22629-0.0264c-0.19753-0.0231-0.37956-0.28458-1.4319-2.0572-0.66307-1.1169-1.2474-2.0447-1.2986-2.0618-0.0662-0.0221-0.0855 0.51062-0.0672 1.8479 0.0252 1.8312 0.0307 1.8828 0.21631 2.033 0.10478 0.0848 0.1905 0.17658 0.1905 0.20403 0 0.0275-0.2667 0.0499-0.59266 0.0499-0.32597 0-0.59267-0.0226-0.59267-0.0502zm0.0442-9.3448c-0.0277-0.0449 0.0272-0.15917 0.12201-0.254 0.16425-0.16426 0.17242-0.27267 0.17242-2.2899 0-2.0127-8e-3 -2.1247-0.16934-2.2625-0.0931-0.0797-0.16933-0.17797-0.16933-0.21828 0-0.0403 0.60008-0.0604 1.3335-0.0447 1.2092 0.0259 1.3622 0.0464 1.641 0.21985 0.71158 0.44252 0.704 1.5646-0.0147 2.1693-0.14495 0.12196-0.29871 0.22175-0.34171 0.22175-0.13946 0-0.0827 0.22363 0.0983 0.38746 0.0971 0.0878 0.35423 0.47926 0.5715 0.86981 0.21726 0.39055 0.50227 0.80046 0.63336 0.91091s0.21457 0.2393 0.18551 0.28632c-0.0618 0.0999-0.71497 0.11313-0.86542 0.0175-0.0566-0.036-0.31668-0.46401-0.57797-0.95119-0.58608-1.0928-0.77884-1.2848-1.2551-1.25l-0.35001 0.0256-0.0241 0.86912c-0.0233 0.83801-0.0164 0.8763 0.19233 1.0697 0.18285 0.16945 0.19539 0.20871 0.0807 0.25271-0.21696 0.0833-1.2076 0.0601-1.263-0.0295zm2.2436-2.671c0.6156-0.31834 0.66844-1.6034 0.081-1.9702-0.22124-0.13816-0.85611-0.22462-1.1352-0.15458l-0.21767 0.0546v1.0398c0 0.71756 0.0328 1.0734 0.10583 1.1482 0.12792 0.13101 0.82006 0.0611 1.166-0.11781zm3.633-9.94c-0.0667-0.13564-1.7404-2.7836-3.7193-5.8843-2.4567-3.8492-3.6439-5.6377-3.7425-5.6377-0.0794 0-5.2939 2.6289-11.588 5.842-6.2939 3.2131-11.509 5.842-11.589 5.842-0.0799 0-7.0129-3.5052-15.406-7.7893-8.3936-4.2841-15.296-7.7893-15.339-7.7893-0.0474 0-0.078-9.3017-0.078-23.686v-23.686l0.27517-0.0926c0.23348-0.0785 27.614-13.058 29.819-14.135l0.75702-0.36988 0.25898 0.15772c0.26309 0.16022 29.952 14.261 30.324 14.402l0.20294 0.0772v31.498c0 17.324-0.0121 31.498-0.027 31.498-0.0148 0-0.0815-0.11098-0.14817-0.24662zm-24.801-27.665c2.957-1.5162 5.4043-2.8002 5.4385-2.8534 0.0342-0.0532 0.0628-3.9344 0.0635-8.6249l1e-3 -8.5282-0.20177-0.13221c-0.19272-0.12627-10.483-5.0618-10.859-5.2085-0.14411-0.0562-1.3135 0.47013-5.715 2.5721l-5.5338 2.6427v17.182l1.016 0.53188c4.8617 2.5451 10.183 5.241 10.287 5.2113 0.0698-0.02 2.5464-1.2769 5.5033-2.7931z" clip-path="url(#clipPath60)" fill="#f5d304"/>
  <path transform="translate(-87.023 7.0118)" d="m188.83 168.09c0-0.0466 0.0571-0.0847 0.127-0.0847s0.127 0.0381 0.127 0.0847-0.0571 0.0847-0.127 0.0847-0.127-0.0381-0.127-0.0847zm8.636-0.93133c0-0.0466 0.0381-0.0847 0.0847-0.0847s0.0847 0.0381 0.0847 0.0847-0.0381 0.0847-0.0847 0.0847-0.0847-0.0381-0.0847-0.0847zm14.311-0.0395c-0.10166-0.1225-0.10122-0.15351 3e-3 -0.21872 0.0836-0.0523 0.13019-0.0366 0.14924 0.0504 0.0503 0.22936-0.029 0.31693-0.15233 0.16832zm-41.567-0.68721c4e-3 -0.0986 0.0241-0.1187 0.0512-0.0512 0.0245 0.0611 0.0215 0.13415-7e-3 0.16228-0.0281 0.0281-0.0481-0.0219-0.0445-0.11112zm16.63-0.45862c-0.0288-0.0466-0.012-0.0847 0.0373-0.0847s0.0897 0.0381 0.0897 0.0847-0.0168 0.0847-0.0373 0.0847-0.0609-0.0381-0.0897-0.0847zm17.399-0.0847c0-0.0466 0.0403-0.0847 0.0897-0.0847 0.0493 0 0.0661 0.0381 0.0373 0.0847s-0.0691 0.0847-0.0897 0.0847c-0.0205 0-0.0373-0.0381-0.0373-0.0847zm-28.145-0.0733c-0.0365-0.059-0.0434-0.13016-0.0155-0.1581 0.0758-0.0758 0.15839 0.0357 0.11746 0.15844-0.0287 0.086-0.0486 0.086-0.10196 0zm16.63-0.0537c0-0.0699 0.0381-0.127 0.0847-0.127s0.0847 0.0572 0.0847 0.127c0 0.0699-0.0381 0.127-0.0847 0.127s-0.0847-0.0571-0.0847-0.127zm2.2507 0.0537c-0.0365-0.059-0.0434-0.13016-0.0155-0.1581 0.0758-0.0758 0.15839 0.0357 0.11747 0.15844-0.0287 0.086-0.0486 0.086-0.10197 0zm15.532-0.49819c3e-3 -0.22061 9e-3 -0.2244 0.12428-0.0722 0.12246 0.16178 0.10024 0.30503-0.0473 0.30503-0.0438 0-0.0785-0.10478-0.077-0.23283zm-53.059-4.4285c-2.4886-0.32438-4.0369-1.4179-4.5312-3.2004-0.14323-0.51651-0.15498-0.99736-0.15498-6.3392v-5.7803h3.5515l0.0468 11.557 0.23752 0.40406c0.45621 0.77612 1.3831 1.1338 2.7258 1.0519 0.4191-0.0256 0.90391-0.0889 1.0774-0.14077 0.49172-0.14698 1.0155-0.59156 1.251-1.0618l0.21167-0.42271 0.047-11.388h3.5514l-1e-3 5.6515c-2e-3 6.162-0.0155 6.371-0.48113 7.2416-0.50572 0.94555-1.5789 1.756-2.8195 2.1293-1.1476 0.34527-3.302 0.48137-4.7117 0.29763zm36.417-0.0331c-1.9289-0.29984-3.2864-1.1738-3.92-2.5237-0.46609-0.99296-0.47978-1.1409-0.47978-5.1855 0-4.0446 0.0137-4.1926 0.47978-5.1855 0.80859-1.7227 2.7596-2.6389 5.6313-2.6445 2.2004-4e-3 3.7553 0.46584 4.8162 1.4562 0.81109 0.75714 1.2753 1.7884 1.3255 2.9448l0.0239 0.55034-3.489 0.0456-0.0557-0.59967c-0.068-0.73207-0.19726-1.0563-0.56285-1.4123-0.43403-0.42262-0.98387-0.57414-2.073-0.57124-0.79098 2e-3 -0.99842 0.0324-1.3764 0.20119-0.24482 0.1093-0.55511 0.32399-0.68954 0.4771-0.4674 0.53234-0.47401 0.59845-0.47401 4.7379 0 4.1395 7e-3 4.2056 0.47401 4.7379 0.13443 0.15311 0.44472 0.3678 0.68954 0.47709 0.37803 0.16878 0.58547 0.1991 1.3764 0.2012 1.0892 3e-3 1.639-0.14863 2.073-0.57125 0.40452-0.39389 0.5238-0.75449 0.57397-1.7351l0.0445-0.86952 1.7446 0.0229 1.7446 0.0228-0.0149 0.82459c-0.048 2.6548-1.613 4.2214-4.6267 4.631-0.85833 0.11667-2.3737 0.10147-3.2352-0.0325zm-21.629-7.7092v-7.5777h3.3332c4.1347 0 4.845 0.0938 6.258 0.82666 1.1266 0.58433 1.907 1.6481 2.2351 3.0465 0.13389 0.57072 0.15401 1.0546 0.15401 3.7045 0 2.6499-0.0201 3.1338-0.15401 3.7045-0.32808 1.3984-1.1085 2.4622-2.2351 3.0465-1.413 0.73284-2.1232 0.82667-6.258 0.82667h-3.3332zm5.6303 5.2056c0.99134-0.11021 1.8518-0.50838 2.2403-1.0366 0.48799-0.66356 0.53351-0.95487 0.57514-3.6809 0.0409-2.6763-0.0273-3.5616-0.32801-4.2607-0.22184-0.51569-0.78141-1.0307-1.328-1.2222-0.53174-0.18633-2.5236-0.35499-2.904-0.2459l-0.28749 0.0824-0.0218 5.1428-0.0218 5.1428 0.19116 0.0768c0.25744 0.10345 0.9621 0.10399 1.8845 1e-3zm29.719 1.7476c0.11223-0.17128 0.12822-0.51985 0.10779-2.3495-0.0132-1.1816-0.0566-2.215-0.0966-2.2965-0.0628-0.12821-0.028-0.14817 0.25824-0.14817 0.18193 0 0.37718 0.0464 0.43389 0.1031 0.0567 0.0567 0.58602 0.91395 1.1763 1.905s1.1185 1.8019 1.174 1.8019c0.0554 0 0.11476-0.0667 0.13184-0.14816 0.0568-0.27124-0.0556-3.3631-0.12774-3.5137-0.0616-0.12858-0.0251-0.14817 0.27672-0.14817 0.3771 0 0.40759 0.0407 0.21803 0.29135-0.10212 0.13502-0.12431 0.56948-0.12431 2.4342 0 2.106-0.0107 2.2697-0.14816 2.2679-0.10282-1e-3 -0.53357-0.65032-1.4073-2.1203-0.69255-1.1651-1.3022-2.104-1.3547-2.0866-0.15751 0.0524-0.17475 3.6516-0.019 3.9638l0.12219 0.24494h-0.75293zm-7e-3 -9.3299c0.11402-0.11403 0.13304-0.44298 0.13304-2.3005 0-1.898-0.0174-2.1867-0.14012-2.3223-0.13503-0.14921-0.10199-0.15481 0.91017-0.15436 1.6994 8.5e-4 2.1121 0.20451 2.175 1.0738 0.0467 0.64528-0.10774 0.96022-0.61717 1.2588-0.2093 0.12266-0.38053 0.26713-0.38053 0.32108 0 0.0539 0.1162 0.20773 0.25823 0.34179 0.14204 0.13406 0.34756 0.41968 0.45673 0.63473 0.10917 0.21504 0.33329 0.59101 0.49804 0.83549l0.29955 0.4445h-0.32851c-0.32633 0-0.33113-5e-3 -0.72492-0.74084-0.62949-1.1764-0.76767-1.3628-1.0725-1.4462l-0.27565-0.0755 0.33866-0.0636c0.69306-0.1301 1.0577-0.56871 1.0577-1.2722 0-0.52875-0.23523-0.93936-0.6335-1.1058-0.35426-0.14802-1.0718-0.16005-1.2116-0.0203-0.0684 0.0684-0.1016 0.45425-0.1016 1.1805 0 0.99013 0.0142 1.0889 0.17279 1.2l0.17278 0.12103-0.17278 0.0452c-0.15993 0.0418-0.17279 0.11054-0.17279 0.92328 0 0.6577 0.0331 0.92531 0.1318 1.0662l0.13181 0.18818h-0.51885c-0.47168 0-0.50676-0.0121-0.3858-0.13305zm5.6749-12.325c-0.0635-0.20019-7.1784-11.39-7.3619-11.578-0.0974-0.1-0.32198-0.0124-1.4968 0.58361-0.76021 0.38567-5.962 3.0389-11.56 5.8961-5.5976 2.8572-10.23 5.1949-10.294 5.1949-0.064 0-6.9838-3.5052-15.377-7.7893-8.3936-4.2841-15.296-7.7893-15.339-7.7893-0.0474 0-0.078-9.2943-0.078-23.667 0-22.464 7e-3 -23.67 0.14816-23.718 0.17743-0.06117 1.954-0.89318 5.3975-2.5278 1.397-0.66316 3.664-1.7391 5.0377-2.391s3.6216-1.7188 4.9953-2.3708c1.3737-0.65204 5.1266-2.4312 8.3397-3.9537s6.0834-2.8996 6.3784-3.0603l0.53646-0.29211 0.26788 0.16322c0.26886 0.16375 29.952 14.263 30.333 14.408l0.20294 0.07716v31.498c0 17.324-0.0165 31.498-0.0366 31.498s-0.0625-0.0816-0.0942-0.18132zm-20.663-19.221c5.3598-2.7085 9.7732-4.966 9.8075-5.0165 0.0343-0.0505 0.0533-6.8356 0.0423-15.078l-0.02-14.986-8.0433-3.7847c-4.4237-2.0816-8.8694-4.1726-9.8792-4.6467l-1.836-0.86208-9.6786 4.5472c-5.3232 2.501-9.7644 4.6024-9.8691 4.6698l-0.1905 0.12261v19.859c0 14.905 0.0242 19.851 0.0972 19.827 0.0534-0.0178 1.1298-1.639 2.3918-3.6026 1.2621-1.9636 2.3353-3.5866 2.3849-3.6067 0.0497-0.0201 3.4215 1.6524 7.493 3.7167s7.437 3.7559 7.4789 3.759c0.0419 3e-3 4.4615-2.2103 9.8213-4.9188z" clip-path="url(#clipPath50)" fill="#0f9746"/>
 </g>
</svg>
