<svg width="61.621mm" height="82.849mm" version="1.1" viewBox="0 0 61.621 82.849" xmlns="http://www.w3.org/2000/svg">
 <defs>
  <clipPath id="clipPath1289">
   <rect x="31.785" y="30.753" width="136.04" height="100.11" rx="71.044" fill="#454545" opacity=".99" stroke-width="0"/>
  </clipPath>
 </defs>
 <g transform="translate(-67.794 -48.014)" stroke-width=".084667">
  <path d="m78.975 106.03 0.02185-4.9929 8.5513-6.2943 1.524 0.78374c0.8382 0.43106 3.3685 1.7292 5.6229 2.8848l4.0989 2.101-0.0554 5.2053c-0.0305 2.8629-0.0723 5.2222-0.0929 5.2429-0.0207 0.0207-3.3626-1.643-7.4265-3.6971-5.8095-2.9364-7.4095-3.7119-7.4852-3.6282-0.05296 0.0586-1.0232 1.5543-2.1561 3.3238s-2.1869 3.4078-2.3423 3.6406l-0.28242 0.42322zm25.38-31.057-5.5457-2.6486-0.0637-5.1543c-0.035-2.8349-0.0479-5.1701-0.0286-5.1894 0.0193-0.01931 4.4295 2.029 9.8004 4.5517s9.7923 4.6121 9.8253 4.6429c0.033 0.03087-1.8279 1.4845-4.1354 3.2303s-4.2204 3.1836-4.251 3.1951c-0.0306 0.01149-2.5512-1.171-5.6013-2.6277z" fill="#f8de05"/>
  <path d="m98.662 109.86c0.012-0.66365 0.033-1.4733 0.0467-1.7993 0.0136-0.32596 0.0324 0.21696 0.0416 1.2065 9e-3 0.98955-0.0118 1.7992-0.0467 1.7993-0.0349 7e-5 -0.0536-0.54285-0.0416-1.2065zm15.514-11.831-4.191-3.1021-0.0432-17.295 8.4251-6.3745 0.0216 7.5075c0.0119 4.1291 0.0119 10.851 0 14.937l-0.0216 7.4295zm-35.137-11.897c0-11.873 0.02133-14.856 0.10583-14.805 0.05821 0.03533 1.9824 1.4712 4.2761 3.1908l4.1702 3.1266-0.04314 17.113-3.8947 2.8617c-2.1421 1.574-4.0566 2.9789-4.2545 3.1221l-0.35983 0.26033zm19.681-17.272c-3e-5 -1.9092 0.0111-2.7024 0.0247-1.7625 0.0136 0.93986 0.0136 2.502 4e-5 3.4713-0.0136 0.96938-0.0247 0.2004-0.0248-1.7088z" fill="#f1ca02"/>
  <path d="m98.748 105.88 0.0229-5.2705 11.158-5.7244 3.2881 2.4336c1.8084 1.3385 3.7169 2.751 4.241 3.139l0.95297 0.70543-0.0216-15.022c-0.0119-8.262 7e-3 -15.004 0.0419-14.983 0.0349 0.02159 0.0635 6.776 0.0635 15.01 0 11.876-0.0219 14.988-0.10583 15.054-0.0582 0.0457-4.4912 2.2982-9.8511 5.0057s-9.7605 4.9227-9.779 4.9227c-0.0185 1e-5 -0.0234-2.3717-0.0108-5.2705zm-19.751-19.745 4.71e-4 -14.983 9.8637-4.6376c5.425-2.5507 9.8637-4.6382 9.8637-4.6388 0-6.77e-4 -0.0102 2.3515-0.0226 5.227l-0.0226 5.2282-11.107 5.2984-8.4906-6.367-0.0856 29.856 5.08e-4 -14.983z" fill="#eabc08"/>
  <path d="m83.146 117.8-15.325-7.8253-0.02132-23.726c-0.01708-19.014-2.68e-4 -23.698 0.08467-23.584 0.05829 0.07818 2.5634 2.0211 5.567 4.3175l5.461 4.1754 0.08466 39.896 2.3663-3.6845c1.3015-2.0265 2.4068-3.7001 2.4563-3.7191s3.3852 1.6286 7.4127 3.6612c4.0275 2.0327 7.3586 3.7284 7.4025 3.7683 0.0484 0.044 0.0732 1.8126 0.063 4.497-9e-3 2.4335-0.0412 5.6913-0.071 7.2396s-0.0772 2.8139-0.10533 2.8123c-0.0281-2e-3 -6.9472-3.5243-15.376-7.8282zm40.802-12.234-5.4116-4.3176-0.0846-30.082-19.727-9.2716-0.0513-3.2893c-0.0282-1.8091-0.0568-4.9149-0.0635-6.9018-9e-3 -2.797-0.036-3.6238-0.11798-3.6628-0.0582-0.02768-0.0234-0.03529 0.0773-0.01692 0.10069 0.01837 7.0816 3.3049 15.513 7.3034l15.33 7.27 2e-3 23.643c1e-3 13.004-0.0107 23.643-0.0262 23.643s-2.4634-1.9429-5.4398-4.3176z" fill="#0f9746"/>
 </g>
 <g transform="translate(-.43755 1.9009)">
  <path transform="translate(-67.356 -49.915)" d="m71.366 153.49c0-0.48895 0.01399-0.68897 0.0311-0.4445 0.0171 0.24448 0.0171 0.64453 0 0.889-0.0171 0.24448-0.0311 0.0445-0.0311-0.4445zm30.395 0c0-0.48895 0.014-0.68897 0.0311-0.4445 0.0171 0.24448 0.0171 0.64453 0 0.889-0.0171 0.24448-0.0311 0.0445-0.0311-0.4445zm24.892-0.0423c1.7e-4 -0.51224 0.0141-0.71087 0.031-0.44141s0.0167 0.68856-3.4e-4 0.93133c-0.017 0.24277-0.0308 0.0223-0.0306-0.48992zm-34.631 0.0847c3.38e-4 -0.37253 0.01519-0.5144 0.03308-0.31526s0.01763 0.50394-5.93e-4 0.67733c-0.01819 0.1734-0.03283 0.0105-0.03252-0.36207zm18.88-0.0423c0-0.34925 0.0149-0.49212 0.0332-0.3175 0.0183 0.17463 0.0183 0.46038 0 0.635-0.0183 0.17463-0.0332 0.0318-0.0332-0.3175zm-30.822 0c0-0.25612 0.01587-0.36089 0.03527-0.23283s0.0194 0.33761 0 0.46566c-0.0194 0.12806-0.03527 0.0233-0.03527-0.23283zm0.8378 0.0423c0.0017-0.1397 0.0207-0.18659 0.04217-0.10422 0.02147 0.0824 0.02005 0.19668-0.0031 0.254-0.02319 0.0573-0.04076-0.0101-0.03903-0.14978zm12.192 0c0.0017-0.1397 0.0207-0.18659 0.04217-0.10422 0.02147 0.0824 0.02005 0.19668-0.0031 0.254-0.02319 0.0573-0.04076-0.0101-0.03903-0.14978zm7.7893 0c2e-3 -0.1397 0.0207-0.18659 0.0422-0.10422 0.0215 0.0824 0.0201 0.19668-3e-3 0.254-0.0232 0.0573-0.0408-0.0101-0.039-0.14978zm18.457 0c2e-3 -0.1397 0.0207-0.18659 0.0422-0.10422 0.0215 0.0824 0.0201 0.19668-3e-3 0.254-0.0232 0.0573-0.0408-0.0101-0.039-0.14978zm-49.007-0.71966c0-0.48895 0.01399-0.68898 0.0311-0.4445 0.0171 0.24447 0.0171 0.64452 0 0.889-0.0171 0.24447-0.0311 0.0444-0.0311-0.4445zm35.62 0.71261c4e-3 -0.0986 0.0241-0.11869 0.0511-0.0511 0.0245 0.0611 0.0215 0.13414-7e-3 0.16228-0.0281 0.0281-0.0481-0.0219-0.0445-0.11113zm0.67733 0c4e-3 -0.0986 0.0241-0.11869 0.0512-0.0511 0.0245 0.0611 0.0215 0.13414-7e-3 0.16228-0.0281 0.0281-0.0481-0.0219-0.0445-0.11113zm9.144 0c4e-3 -0.0986 0.0241-0.11869 0.0512-0.0511 0.0245 0.0611 0.0215 0.13414-7e-3 0.16228-0.0281 0.0281-0.0481-0.0219-0.0445-0.11113zm6.5193 0c4e-3 -0.0986 0.0241-0.11869 0.0511-0.0511 0.0245 0.0611 0.0215 0.13414-7e-3 0.16228-0.0281 0.0281-0.0481-0.0219-0.0445-0.11113zm-40.878-0.1807c0.1287-0.0195 0.3192-0.0189 0.42333 1e-3 0.10414 0.0201-0.0012 0.036-0.234 0.0354-0.23283-8.4e-4 -0.31803-0.0171-0.18934-0.0365zm5.3103 8.4e-4c0.20879-0.0199 0.41171-0.0811 0.45095-0.13611 0.04932-0.0691 0.06077-0.0608 0.03711 0.027-0.02408 0.0893-0.15779 0.1297-0.45095 0.13612l-0.41672 9e-3zm6.8817-8.4e-4c0.1287-0.0195 0.3192-0.0189 0.42333 1e-3 0.10414 0.0201-0.0012 0.036-0.234 0.0354-0.23283-8.4e-4 -0.31804-0.0171-0.18934-0.0365zm13.547 0c0.1287-0.0195 0.3192-0.0189 0.42333 1e-3 0.10414 0.0201-1e-3 0.036-0.23399 0.0354-0.23284-8.4e-4 -0.31804-0.0171-0.18934-0.0365zm17.398-0.33399c0.0582-0.0235 0.15345-0.0235 0.21166 0 0.0582 0.0235 0.0106 0.0427-0.10583 0.0427-0.11642 0-0.16404-0.0192-0.10583-0.0427zm-52.573-0.17109c0.06112-0.0245 0.13414-0.0215 0.16228 7e-3 0.02813 0.0281-0.02187 0.0482-0.11112 0.0445-0.09863-4e-3 -0.11869-0.0241-0.05115-0.0512zm2.704 2e-3c0.05821-0.0235 0.15346-0.0235 0.21167 0s0.01058 0.0427-0.10583 0.0427c-0.11642 0-0.16404-0.0192-0.10583-0.0427zm2.0373-2e-3c0.06112-0.0245 0.13414-0.0215 0.16228 7e-3 0.02813 0.0281-0.02187 0.0482-0.11112 0.0445-0.09863-4e-3 -0.11869-0.0241-0.05115-0.0512zm13.711 2e-3c0.05821-0.0235 0.15346-0.0235 0.21167 0s0.01058 0.0427-0.10583 0.0427c-0.11642 0-0.16404-0.0192-0.10583-0.0427zm5.0853-2e-3c0.06112-0.0245 0.13414-0.0215 0.16228 7e-3 0.02813 0.0281-0.02187 0.0482-0.11112 0.0445-0.09863-4e-3 -0.11869-0.0241-0.05115-0.0512zm6.858 0c0.0611-0.0245 0.13414-0.0215 0.16228 7e-3 0.0281 0.0281-0.0219 0.0482-0.11113 0.0445-0.0986-4e-3 -0.11869-0.0241-0.0511-0.0512zm12.869 0c0.0611-0.0245 0.13415-0.0215 0.16228 7e-3 0.0281 0.0281-0.0219 0.0482-0.11112 0.0445-0.0986-4e-3 -0.1187-0.0241-0.0512-0.0512zm6.5193 0c0.0611-0.0245 0.13414-0.0215 0.16228 7e-3 0.0281 0.0281-0.0219 0.0482-0.11113 0.0445-0.0986-4e-3 -0.11869-0.0241-0.0512-0.0512zm-41.701-0.4925c6.77e-4 -0.23283 0.01708-0.31803 0.03654-0.18934 0.01946 0.1287 0.01894 0.3192-0.0012 0.42333-0.0201 0.10414-0.03602-1e-3 -0.03538-0.23399zm11.933 0.0423c0-0.16298 0.01742-0.22965 0.03872-0.14816 0.0213 0.0815 0.0213 0.21484 0 0.29633-0.0213 0.0815-0.03872 0.0148-0.03872-0.14817zm16.679 0c0-0.16298 0.0174-0.22965 0.0387-0.14816 0.0213 0.0815 0.0213 0.21484 0 0.29633-0.0213 0.0815-0.0387 0.0148-0.0387-0.14817zm2.2013 0c0-0.16298 0.0174-0.22965 0.0387-0.14816 0.0213 0.0815 0.0213 0.21484 0 0.29633-0.0213 0.0815-0.0387 0.0148-0.0387-0.14817zm13.719-0.228c0.0824-0.0215 0.19668-0.0201 0.254 3e-3 0.0573 0.0232-0.0101 0.0408-0.14978 0.039-0.1397-2e-3 -0.1866-0.0207-0.10422-0.0422zm-26.079-0.25369c0.0815-0.0213 0.21485-0.0213 0.29634 0 0.0815 0.0213 0.0148 0.0387-0.14817 0.0387-0.16298 0-0.22966-0.0174-0.14817-0.0387zm-24.087-3.8115c0.10532-0.0203 0.25772-0.0195 0.33867 2e-3 0.08095 0.0212-0.0052 0.0378-0.19149 0.0368-0.18627-9.3e-4 -0.2525-0.0183-0.14718-0.0385zm1.0573 2e-3c0.08149-0.0213 0.21484-0.0213 0.29633 0s0.01482 0.0387-0.14817 0.0387c-0.16298 0-0.22966-0.0174-0.14817-0.0387zm35.475 0c0.0815-0.0213 0.21484-0.0213 0.29633 0 0.0815 0.0213 0.0148 0.0387-0.14817 0.0387-0.16298 0-0.22966-0.0174-0.14816-0.0387zm1.016 0c0.0815-0.0213 0.21484-0.0213 0.29633 0 0.0815 0.0213 0.0148 0.0387-0.14817 0.0387-0.16298 0-0.22966-0.0174-0.14816-0.0387zm-23.857-7.9426c-5e-6 -4.2841 0.01029-6.0491 0.02288-3.9222s0.01259 5.6321 8e-6 7.7893c-0.01258 2.1572-0.02289 0.41703-0.02289-3.8671zm6.5475 7.6892c0.06112-0.0245 0.13414-0.0214 0.16228 7e-3 0.02813 0.0281-0.02187 0.0482-0.11112 0.0445-0.09863-4e-3 -0.1187-0.0241-0.05115-0.0512zm26.049-7.9008c0-4.4006 0.0103-6.2008 0.0228-4.0005 0.0126 2.2003 0.0126 5.8007 0 8.001s-0.0228 0.40005-0.0228-4.0005zm2.8169 7.4733c0.1979-0.0178 0.52175-0.0178 0.71966 0s0.036 0.0324-0.35983 0.0324c-0.39582 0-0.55774-0.0146-0.35983-0.0324zm0.0577-2.605c5e-5 -1.1176 0.0121-1.5631 0.0268-0.98998s0.0146 1.4875-9e-5 2.032c-0.0147 0.54449-0.0267 0.0756-0.0267-1.042zm-48.655 0.65978c0.10532-0.0202 0.25772-0.0195 0.33867 2e-3 0.08095 0.0212-0.0052 0.0378-0.19149 0.0368-0.18627-9.3e-4 -0.2525-0.0183-0.14718-0.0385zm36.576 0c0.10531-0.0202 0.25771-0.0195 0.33866 2e-3 0.081 0.0212-5e-3 0.0378-0.19148 0.0368-0.18627-9.3e-4 -0.2525-0.0183-0.14718-0.0385zm15.123-1.7604c1.7e-4 -0.51223 0.0141-0.71087 0.031-0.44141s0.0167 0.68856-3.4e-4 0.93133c-0.017 0.24278-0.0308 0.0223-0.0306-0.48992zm-2.5446 0.29633c0-0.30268 0.0154-0.4265 0.0341-0.27516 0.0188 0.15134 0.0188 0.39899 0 0.55033s-0.0341 0.0275-0.0341-0.27517zm-42.49-5.9267c0-3.1432 0.01056-4.4291 0.02346-2.8575s0.0129 4.1434 0 5.715-0.02346 0.28575-0.02346-2.8575zm-3.8101-0.16934c0-3.0501 0.01058-4.2979 0.02352-2.7728s0.01294 4.0206 0 5.5457-0.02352 0.27728-0.02352-2.7728zm40.107 4.8488-0.0148-0.44288-3.7677-0.049 1.8865-0.0195c1.5428-0.0159 1.8947 2e-3 1.9315 0.0978 0.0248 0.0645 0.0302 0.2836 0.0121 0.48683-0.0326 0.36665-0.033 0.36608-0.0477-0.0734zm8.3214-0.36708c-0.0307-0.0497-0.0376-0.10846-0.0154-0.13066s0.0629 0.0185 0.0905 0.0903c0.0276 0.0719 0.0345 0.13065 0.0155 0.13065-0.0191 0-0.0598-0.0406-0.0905-0.0903zm-10.184-4.9677c1.5429-0.0212 1.8419-0.0455 1.8752-0.15225 0.0269-0.0862 0.0352-0.0789 0.026 0.0228-0.0126 0.13829-0.15705 0.15001-1.8752 0.15226l-1.8616 2e-3 1.8356-0.0252zm8.3126-0.78399c0-0.44238 0.0143-0.62335 0.0317-0.40216s0.0174 0.58314 0 0.80433c-0.0175 0.22119-0.0317 0.0402-0.0317-0.40217zm3e-3 -2.286c0-0.62865 0.0133-0.88582 0.0296-0.5715 0.0163 0.31433 0.0163 0.82868 0 1.143-0.0163 0.31433-0.0296 0.0572-0.0296-0.5715zm-12.881 0.44964c0.0815-0.0213 0.21484-0.0213 0.29633 0 0.0815 0.0213 0.0148 0.0387-0.14817 0.0387-0.16298 0-0.22966-0.0174-0.14816-0.0387zm13.167-1.6102c0.10532-0.0203 0.25772-0.0195 0.33867 2e-3 0.0809 0.0212-5e-3 0.0378-0.19149 0.0368-0.18627-9.3e-4 -0.2525-0.0183-0.14718-0.0385zm-29.968-0.75995c0.06112-0.0245 0.13414-0.0214 0.16228 7e-3 0.02813 0.0281-0.02187 0.0481-0.11112 0.0445-0.09863-4e-3 -0.1187-0.0241-0.05115-0.0512zm16.336-0.25604c0.10531-0.0203 0.25771-0.0195 0.33866 2e-3 0.081 0.0212-5e-3 0.0378-0.19148 0.0368-0.18627-9.4e-4 -0.2525-0.0183-0.14718-0.0385zm0.93133 0c0.10532-0.0203 0.25772-0.0195 0.33867 2e-3 0.0809 0.0212-5e-3 0.0378-0.19149 0.0368-0.18627-9.4e-4 -0.2525-0.0183-0.14718-0.0385zm-13.328-9.3506c0.0298-1.5531 0.0619-4.805 0.0711-7.2265l0.0169-4.4027 5.1696-2.6139c2.8433-1.4376 7.2892-3.687 9.8798-4.9986l4.7102-2.3848 10.941 8.7272 3.4e-4 7.8274c2.5e-4 4.7323-0.0303 7.7956-0.0771 7.747-0.0426-0.0442-1.7409-2.6903-3.7741-5.8801s-3.7414-5.7878-3.7961-5.7732c-0.0546 0.0145-5.1857 2.6202-11.402 5.7904s-11.413 5.8197-11.548 5.8878l-0.24541 0.12381zm-25.215-55.865c-3.0251-2.3193-5.5113-4.2504-5.525-4.2914-0.01366-0.04098 6.8372-3.3314 15.224-7.312 8.387-3.9806 15.297-7.2487 15.355-7.2624 0.0833-0.01963 0.11862 1.4347 0.16732 6.8868 0.034 3.8014 0.0493 6.9205 0.0341 6.9314-0.0152 0.01084-4.442 2.0934-9.8372 4.6279-5.3953 2.5345-9.8339 4.6146-9.8637 4.6224-0.02975 0.0078-2.5292-1.8834-5.5542-4.2027z" clip-path="url(#clipPath1289)" fill="#148841" stroke-width=".084667"/>
 </g>
</svg>
